<?xml version="1.0" encoding="UTF-8"?>
<svg width="128" height="128" viewBox="0 0 128 128" xmlns="http://www.w3.org/2000/svg">
    <rect width="128" height="128" fill="#00A0E9"/>
    <path d="M36.5,77.6c-1.2,0.3-2.2,0.6-3.1,0.9c-5.5,1.7-9.3,3.6-11.3,5.6c-2,2-3,4.4-3,7.2 c0,2.8,1,5.2,3,7.2c2,2,4.4,3,7.2,3c2.8,0,5.2-1,7.2-3c2-2,3-4.4,3-7.2V77.6z M113,0H15C6.7,0,0,6.7,0,15v98c0,8.3,6.7,15,15,15 h98c8.3,0,15-6.7,15-15V15C128,6.7,121.3,0,113,0z M94.5,96.5c-2.8,0-5.2-1-7.2-3c-2-2-3-4.4-3-7.2V62.8H36.5v23.5 c0,2.8-1,5.2-3,7.2c-2,2-4.4,3-7.2,3c-2.8,0-5.2-1-7.2-3c-2-2-3-4.4-3-7.2c0-2.8,1-5.2,3-7.2c2-2,5.8-3.9,11.3-5.6 c0.9-0.3,1.9-0.6,3.1-0.9V31.5h47.8v23.5h7.2c2.8,0,5.2,1,7.2,3c2,2,3,4.4,3,7.2v23.5c0,2.8-1,5.2-3,7.2 C99.7,95.5,97.3,96.5,94.5,96.5z" fill="#FFFFFF"/>
</svg> 