<?xml version="1.0" encoding="UTF-8"?>
<svg width="128" height="128" viewBox="0 0 128 128" xmlns="http://www.w3.org/2000/svg">
    <rect width="128" height="128" fill="#07C160"/>
    <path d="M64,25.6c-21.2,0-38.4,14.4-38.4,32c0,9.6,5.1,18.1,12.8,24l-3.2,9.6l11.2-5.6c3.8,0.8,7.7,1.6,11.5,1.6 c1,0,2.6,0,3.8-0.3c-0.6-2.1-1-4.5-1-6.7c0-14.4,13.4-25.6,30.1-25.6c1.3,0,2.6,0,3.8,0.3C91.5,40.3,79.4,25.6,64,25.6z M44.8,48 c-2.6,0-4.8-2.1-4.8-4.8c0-2.7,2.2-4.8,4.8-4.8c2.6,0,4.8,2.1,4.8,4.8C49.6,45.9,47.4,48,44.8,48z M83.2,48 c-2.6,0-4.8-2.1-4.8-4.8c0-2.7,2.2-4.8,4.8-4.8c2.6,0,4.8,2.1,4.8,4.8C88,45.9,85.8,48,83.2,48z M102.4,76.8 c0-14.4-14.4-25.6-30.1-25.6c-16.6,0-30.1,11.2-30.1,25.6S55.7,102.4,72.3,102.4c3.8,0,7.7-0.8,11.5-1.6l11.2,5.6l-3.2-9.6 C99.2,90.9,102.4,84.3,102.4,76.8z M57.6,72c-2.2,0-3.8-1.6-3.8-3.8c0-2.1,1.6-3.8,3.8-3.8c2.2,0,3.8,1.6,3.8,3.8 C61.4,70.4,59.8,72,57.6,72z M87,72c-2.2,0-3.8-1.6-3.8-3.8c0-2.1,1.6-3.8,3.8-3.8c2.2,0,3.8,1.6,3.8,3.8C90.9,70.4,89.2,72,87,72z" fill="#FFFFFF"/>
</svg> 